<svg id="flat" height="512" viewBox="0 0 512 512" width="512" xmlns="http://www.w3.org/2000/svg"><path d="m448 216a7.976 7.976 0 0 1 -5.657-2.343l-40-40 11.314-11.314 34.343 34.344 34.343-34.344 11.314 11.314-40 40a7.976 7.976 0 0 1 -5.657 2.343z" fill="#30a5a5"/><path d="m136 256h32v40h-32z" fill="#912e23"/><path d="m320 384h48v16h-48z" fill="#59251f"/><path d="m208 384h-150.059a24 24 0 0 1 -16.97-7.029 57.94 57.94 0 0 1 -16.971-40.971 57.94 57.94 0 0 1 16.971-40.971 24 24 0 0 1 16.97-7.029h150.059z" fill="#16696d"/><path d="m200 232h128v160h-128z" fill="#c44235"/><path d="m200 232h128v24h-128z" fill="#912e23"/><path d="m200 368h128v16h-128z" fill="#912e23"/><path d="m112 240-16 24v32h-32v-32l-16-24v-8h64z" fill="#59251f"/><path d="m64 240v-8h-16v8l16 24v32h16v-32z" fill="#7a4742"/><path d="m72 384-48 48h40l16-16h240.406a7.594 7.594 0 0 0 7.594-7.594v-24.406z" fill="#916d6b"/><path d="m72 384-16 16h240v16h24.406a7.594 7.594 0 0 0 7.594-7.594v-24.406z" fill="#7a4742"/><path d="m57.941 288a24 24 0 0 0 -16.97 7.029 57.94 57.94 0 0 0 -16.971 40.971 57.843 57.843 0 0 0 .566 8 57.931 57.931 0 0 1 16.4-32.971 24 24 0 0 1 16.975-7.029h142.059v-16z" fill="#30a5a5"/><path d="m55.169 208h49.662a7.169 7.169 0 0 1 7.169 7.169v24.831a0 0 0 0 1 0 0h-64a0 0 0 0 1 0 0v-24.831a7.169 7.169 0 0 1 7.169-7.169z" fill="#eac654"/><path d="m104.831 208h-16a7.169 7.169 0 0 1 7.169 7.169v24.831h16v-24.831a7.169 7.169 0 0 0 -7.169-7.169z" fill="#e0b329"/><circle cx="264" cy="400" fill="#eac654" r="32"/><path d="m104.831 208h-49.662a7.169 7.169 0 0 0 -7.169 7.169v8.831h64v-8.831a7.169 7.169 0 0 0 -7.169-7.169z" fill="#afd9e8"/><path d="m104.831 208h-16a7.169 7.169 0 0 1 7.169 7.169v8.831h16v-8.831a7.169 7.169 0 0 0 -7.169-7.169z" fill="#8ac4dd"/><path d="m56 368h144v16h-144z" fill="#074349"/><circle cx="136" cy="400" fill="#eac654" r="32"/><circle cx="136" cy="400" fill="#e0b329" r="16"/><circle cx="264" cy="400" fill="#e0b329" r="16"/><path d="m423.636 208h48.729a7.636 7.636 0 0 1 7.635 7.636v120.364a0 0 0 0 1 0 0h-64a0 0 0 0 1 0 0v-120.364a7.636 7.636 0 0 1 7.636-7.636z" fill="#16696d"/><path d="m472.365 208h-8.365v48a48 48 0 0 1 -48 48v32h64v-120.365a7.636 7.636 0 0 0 -7.635-7.635z" fill="#074349"/><path d="m440 336v-70.848c0-5.055-3.278-9.152-7.321-9.152h-49.358c-4.043 0-7.321 4.1-7.321 9.152v70.848z" fill="#c44235"/><path d="m432.679 256h-.679v19.794a36.206 36.206 0 0 1 -36.206 36.206h-19.794v24h64v-70.848c0-5.052-3.278-9.152-7.321-9.152z" fill="#912e23"/><rect fill="#ef705f" height="96" rx="7.027" width="128" x="360" y="320"/><path d="m480.973 320h-8.973a80 80 0 0 1 -80 80h-32v8.973a7.027 7.027 0 0 0 7.027 7.027h113.946a7.027 7.027 0 0 0 7.027-7.027v-81.946a7.027 7.027 0 0 0 -7.027-7.027z" fill="#c44235"/><circle cx="424" cy="408" fill="#eac654" r="32"/><circle cx="424" cy="408" fill="#e0b329" r="16"/><path d="m400 256h16v64h-16z" fill="#fcd3cd"/><path d="m232 272h64v64h-64z" fill="#e5f1f9"/><path d="m206.26 192h115.48a22.26 22.26 0 0 1 22.26 22.26v17.993a7.747 7.747 0 0 1 -7.747 7.747h-144.506a7.747 7.747 0 0 1 -7.747-7.747v-17.993a22.26 22.26 0 0 1 22.26-22.26z" fill="#afd9e8"/><path d="m321.74 192h-1.74a24 24 0 0 1 -24 24h-112v16.253a7.746 7.746 0 0 0 7.747 7.747h144.506a7.746 7.746 0 0 0 7.747-7.747v-17.993a22.26 22.26 0 0 0 -22.26-22.26z" fill="#8ac4dd"/><path d="m336.253 224h-144.506a7.748 7.748 0 0 1 -7.747-7.747v16a7.748 7.748 0 0 0 7.747 7.747h144.506a7.748 7.748 0 0 0 7.747-7.747v-16a7.748 7.748 0 0 1 -7.747 7.747z" fill="#16696d"/><path d="m336.253 232h-144.506a7.748 7.748 0 0 1 -7.747-7.747v8a7.748 7.748 0 0 0 7.747 7.747h144.506a7.748 7.748 0 0 0 7.747-7.747v-8a7.748 7.748 0 0 1 -7.747 7.747z" fill="#074349"/><path d="m232 296h64v16h-64z" fill="#8ac4dd"/><path d="m256 272h16v64h-16z" fill="#8ac4dd"/><path d="m128 392h136v16h-136z" fill="#59251f"/><path d="m80 312h16v16h-16z" fill="#074349"/><path d="m112 312h16v16h-16z" fill="#074349"/><path d="m40.971 295.029a57.94 57.94 0 0 0 -16.971 40.971 57.936 57.936 0 0 0 16.971 40.97 24 24 0 0 0 15.029 6.945v-95.83a24 24 0 0 0 -15.029 6.944z" fill="#df391d"/><path d="m48 290.165v64.611c0 7.755-9.385 11.845-14.908 6.4l-.121-.121a57.934 57.934 0 0 1 -6.17-7.307 57.915 57.915 0 0 0 14.17 23.221 24 24 0 0 0 15.029 6.946v-95.83a24.028 24.028 0 0 0 -8 2.08z" fill="#912e23"/><path d="m40.971 295.029a57.762 57.762 0 0 0 -16.41 48.928 57.93 57.93 0 0 1 16.41-33.013 23.992 23.992 0 0 1 15.029-6.944v-15.915a24 24 0 0 0 -15.029 6.944z" fill="#ef705f"/><g fill="#afd9e8"><path d="m156.686 104h22.627v16h-22.627z" transform="matrix(.707 -.707 .707 .707 -29.99 151.598)"/><path d="m216 104h16v16h-16z"/><path d="m36.686 144h22.627v16h-22.627z" transform="matrix(.707 -.707 .707 .707 -93.421 78.461)"/><path d="m96 144h16v16h-16z"/><path d="m292 119.056h16v17.889h-16z" transform="matrix(.894 -.447 .447 .894 -25.571 147.677)"/><path d="m360 112h16v16h-16z"/><path d="m68 79.056h16v17.889h-16z" transform="matrix(.894 -.447 .447 .894 -31.331 43.279)"/><path d="m136 72h16v16h-16z"/><path d="m392 72h16v16h-16z"/></g></svg>